<mxfile host="app.diagrams.net" modified="2020-09-02T09:58:25.238Z" agent="5.0 (Macintosh; Intel Mac OS X 10_15_5) AppleWebKit/537.36 (KHTML, like Gecko) Chrome/84.0.4147.135 Safari/537.36" etag="33yE3jkr2yqBbnLsjYk9" version="13.6.6" type="github">
  <diagram id="rcp3pEE-7lTvaWBj_Qyv" name="Page-1">
    <mxGraphModel dx="1261" dy="794" grid="1" gridSize="10" guides="1" tooltips="1" connect="1" arrows="1" fold="1" page="1" pageScale="1" pageWidth="827" pageHeight="1169" math="0" shadow="0">
      <root>
        <mxCell id="0" />
        <mxCell id="1" parent="0" />
        <mxCell id="uwBnBX3pxRv0StW7nRhz-1" value="" style="shape=flexArrow;endArrow=classic;html=1;" edge="1" parent="1">
          <mxGeometry width="50" height="50" relative="1" as="geometry">
            <mxPoint x="150" y="330" as="sourcePoint" />
            <mxPoint x="880" y="330" as="targetPoint" />
          </mxGeometry>
        </mxCell>
        <mxCell id="uwBnBX3pxRv0StW7nRhz-19" value="" style="group" vertex="1" connectable="0" parent="1">
          <mxGeometry x="294" y="210" width="120" height="130" as="geometry" />
        </mxCell>
        <mxCell id="uwBnBX3pxRv0StW7nRhz-6" value="" style="endArrow=classic;html=1;exitX=0.5;exitY=0;exitDx=0;exitDy=0;" edge="1" parent="uwBnBX3pxRv0StW7nRhz-19" source="uwBnBX3pxRv0StW7nRhz-7">
          <mxGeometry width="50" height="50" relative="1" as="geometry">
            <mxPoint x="106" y="60" as="sourcePoint" />
            <mxPoint x="60" y="40" as="targetPoint" />
          </mxGeometry>
        </mxCell>
        <mxCell id="uwBnBX3pxRv0StW7nRhz-7" value="" style="ellipse;whiteSpace=wrap;html=1;aspect=fixed;fillColor=#dae8fc;strokeColor=#6c8ebf;" vertex="1" parent="uwBnBX3pxRv0StW7nRhz-19">
          <mxGeometry x="50" y="110" width="20" height="20" as="geometry" />
        </mxCell>
        <mxCell id="uwBnBX3pxRv0StW7nRhz-8" value="" style="endArrow=classic;html=1;" edge="1" parent="uwBnBX3pxRv0StW7nRhz-19" target="uwBnBX3pxRv0StW7nRhz-7">
          <mxGeometry width="50" height="50" relative="1" as="geometry">
            <mxPoint x="60" y="120" as="sourcePoint" />
            <mxPoint x="60" y="220" as="targetPoint" />
          </mxGeometry>
        </mxCell>
        <mxCell id="uwBnBX3pxRv0StW7nRhz-9" value="特征引擎 - 开发完成&lt;br&gt;0916" style="text;html=1;strokeColor=none;fillColor=none;align=center;verticalAlign=middle;whiteSpace=wrap;rounded=0;" vertex="1" parent="uwBnBX3pxRv0StW7nRhz-19">
          <mxGeometry width="120" height="30" as="geometry" />
        </mxCell>
        <mxCell id="uwBnBX3pxRv0StW7nRhz-20" value="" style="group" vertex="1" connectable="0" parent="1">
          <mxGeometry x="150" y="320" width="120" height="120" as="geometry" />
        </mxCell>
        <mxCell id="uwBnBX3pxRv0StW7nRhz-2" value="" style="endArrow=classic;html=1;" edge="1" parent="uwBnBX3pxRv0StW7nRhz-20" source="uwBnBX3pxRv0StW7nRhz-3">
          <mxGeometry width="50" height="50" relative="1" as="geometry">
            <mxPoint x="60" y="10" as="sourcePoint" />
            <mxPoint x="60" y="80" as="targetPoint" />
          </mxGeometry>
        </mxCell>
        <mxCell id="uwBnBX3pxRv0StW7nRhz-3" value="" style="ellipse;whiteSpace=wrap;html=1;aspect=fixed;fillColor=#f8cecc;strokeColor=#b85450;" vertex="1" parent="uwBnBX3pxRv0StW7nRhz-20">
          <mxGeometry x="50" width="20" height="20" as="geometry" />
        </mxCell>
        <mxCell id="uwBnBX3pxRv0StW7nRhz-4" value="" style="endArrow=classic;html=1;" edge="1" parent="uwBnBX3pxRv0StW7nRhz-20" target="uwBnBX3pxRv0StW7nRhz-3">
          <mxGeometry width="50" height="50" relative="1" as="geometry">
            <mxPoint x="60" y="10" as="sourcePoint" />
            <mxPoint x="60" y="110" as="targetPoint" />
          </mxGeometry>
        </mxCell>
        <mxCell id="uwBnBX3pxRv0StW7nRhz-5" value="特征引擎 - 一期启动&lt;br&gt;0902" style="text;html=1;strokeColor=none;fillColor=none;align=center;verticalAlign=middle;whiteSpace=wrap;rounded=0;" vertex="1" parent="uwBnBX3pxRv0StW7nRhz-20">
          <mxGeometry y="90" width="120" height="30" as="geometry" />
        </mxCell>
        <mxCell id="uwBnBX3pxRv0StW7nRhz-21" value="" style="group" vertex="1" connectable="0" parent="1">
          <mxGeometry x="430" y="320" width="120" height="130" as="geometry" />
        </mxCell>
        <mxCell id="uwBnBX3pxRv0StW7nRhz-11" value="" style="endArrow=classic;html=1;" edge="1" parent="uwBnBX3pxRv0StW7nRhz-21" source="uwBnBX3pxRv0StW7nRhz-12">
          <mxGeometry width="50" height="50" relative="1" as="geometry">
            <mxPoint x="60" y="10" as="sourcePoint" />
            <mxPoint x="60" y="80" as="targetPoint" />
          </mxGeometry>
        </mxCell>
        <mxCell id="uwBnBX3pxRv0StW7nRhz-12" value="" style="ellipse;whiteSpace=wrap;html=1;aspect=fixed;fillColor=#f8cecc;strokeColor=#b85450;" vertex="1" parent="uwBnBX3pxRv0StW7nRhz-21">
          <mxGeometry x="50" width="20" height="20" as="geometry" />
        </mxCell>
        <mxCell id="uwBnBX3pxRv0StW7nRhz-13" value="" style="endArrow=classic;html=1;" edge="1" parent="uwBnBX3pxRv0StW7nRhz-21" target="uwBnBX3pxRv0StW7nRhz-12">
          <mxGeometry width="50" height="50" relative="1" as="geometry">
            <mxPoint x="60" y="10" as="sourcePoint" />
            <mxPoint x="60" y="110" as="targetPoint" />
          </mxGeometry>
        </mxCell>
        <mxCell id="uwBnBX3pxRv0StW7nRhz-14" value="特征引擎 - 一期测试&amp;amp;部署完成&lt;br&gt;0923" style="text;html=1;strokeColor=none;fillColor=none;align=center;verticalAlign=middle;whiteSpace=wrap;rounded=0;" vertex="1" parent="uwBnBX3pxRv0StW7nRhz-21">
          <mxGeometry y="90" width="120" height="40" as="geometry" />
        </mxCell>
        <mxCell id="uwBnBX3pxRv0StW7nRhz-22" value="" style="group" vertex="1" connectable="0" parent="1">
          <mxGeometry x="560" y="210" width="120" height="130" as="geometry" />
        </mxCell>
        <mxCell id="uwBnBX3pxRv0StW7nRhz-23" value="" style="endArrow=classic;html=1;exitX=0.5;exitY=0;exitDx=0;exitDy=0;" edge="1" parent="uwBnBX3pxRv0StW7nRhz-22" source="uwBnBX3pxRv0StW7nRhz-24">
          <mxGeometry width="50" height="50" relative="1" as="geometry">
            <mxPoint x="106" y="60" as="sourcePoint" />
            <mxPoint x="60" y="40" as="targetPoint" />
          </mxGeometry>
        </mxCell>
        <mxCell id="uwBnBX3pxRv0StW7nRhz-24" value="" style="ellipse;whiteSpace=wrap;html=1;aspect=fixed;fillColor=#dae8fc;strokeColor=#6c8ebf;" vertex="1" parent="uwBnBX3pxRv0StW7nRhz-22">
          <mxGeometry x="50" y="110" width="20" height="20" as="geometry" />
        </mxCell>
        <mxCell id="uwBnBX3pxRv0StW7nRhz-25" value="" style="endArrow=classic;html=1;" edge="1" parent="uwBnBX3pxRv0StW7nRhz-22" target="uwBnBX3pxRv0StW7nRhz-24">
          <mxGeometry width="50" height="50" relative="1" as="geometry">
            <mxPoint x="60" y="120" as="sourcePoint" />
            <mxPoint x="60" y="220" as="targetPoint" />
          </mxGeometry>
        </mxCell>
        <mxCell id="uwBnBX3pxRv0StW7nRhz-26" value="特征引擎 - launch开始使用&lt;br&gt;0929" style="text;html=1;strokeColor=none;fillColor=none;align=center;verticalAlign=middle;whiteSpace=wrap;rounded=0;" vertex="1" parent="uwBnBX3pxRv0StW7nRhz-22">
          <mxGeometry width="120" height="30" as="geometry" />
        </mxCell>
      </root>
    </mxGraphModel>
  </diagram>
</mxfile>
